<?xml version="1.0" encoding="UTF-8" standalone="no"?>
<!DOCTYPE svg PUBLIC "-//W3C//DTD SVG 1.1//EN" "http://www.w3.org/Graphics/SVG/1.1/DTD/svg11.dtd">
<svg width="100%" height="100%" viewBox="0 0 1200 1200" version="1.1" xmlns="http://www.w3.org/2000/svg" xmlns:xlink="http://www.w3.org/1999/xlink" xml:space="preserve" xmlns:serif="http://www.serif.com/" style="fill-rule:evenodd;clip-rule:evenodd;stroke-linecap:round;stroke-linejoin:round;stroke-miterlimit:1.5;">
    <g transform="matrix(1.01695,0,0,1.01695,100,311.864)">
        <g transform="matrix(1.56025,0,0,1.56025,-404.552,-457.31)">
            <path d="M952.552,285.624L952.552,663.768C952.552,768.12 867.831,852.841 763.48,852.841L385.335,852.841C280.983,852.841 196.263,768.12 196.263,663.768L196.263,285.624C196.263,181.272 280.983,96.551 385.335,96.551L763.48,96.551C867.831,96.551 952.552,181.272 952.552,285.624Z" style="fill:rgb(207,207,207);"/>
        </g>
        <g>
            <g transform="matrix(1.43023,0,0,1.43023,-329.867,-395.59)">
                <path d="M952.552,285.624L952.552,663.768C952.552,768.12 867.831,852.841 763.48,852.841L385.335,852.841C280.983,852.841 196.263,768.12 196.263,663.768L196.263,285.624C196.263,181.272 280.983,96.551 385.335,96.551L763.48,96.551C867.831,96.551 952.552,181.272 952.552,285.624Z" style="fill:none;stroke:rgb(227,227,227);stroke-width:2.75px;"/>
            </g>
            <g transform="matrix(1.30021,0,0,1.30021,-255.182,-333.87)">
                <path d="M952.552,285.624L952.552,663.768C952.552,768.12 867.831,852.841 763.48,852.841L385.335,852.841C280.983,852.841 196.263,768.12 196.263,663.768L196.263,285.624C196.263,181.272 280.983,96.551 385.335,96.551L763.48,96.551C867.831,96.551 952.552,181.272 952.552,285.624Z" style="fill:none;stroke:rgb(227,227,227);stroke-width:3.03px;"/>
            </g>
            <g transform="matrix(1.17019,0,0,1.17019,-180.497,-272.149)">
                <path d="M952.552,285.624L952.552,663.768C952.552,768.12 867.831,852.841 763.48,852.841L385.335,852.841C280.983,852.841 196.263,768.12 196.263,663.768L196.263,285.624C196.263,181.272 280.983,96.551 385.335,96.551L763.48,96.551C867.831,96.551 952.552,181.272 952.552,285.624Z" style="fill:none;stroke:rgb(227,227,227);stroke-width:3.36px;"/>
            </g>
        </g>
        <g>
            <clipPath id="_clip1">
                <path d="M934.166,62.084L934.166,504.583C934.166,626.694 835.027,725.833 712.916,725.833L270.416,725.833C148.305,725.833 49.167,626.694 49.167,504.583L49.167,62.084C49.167,-60.027 148.305,-159.166 270.416,-159.166L712.916,-159.166C835.027,-159.166 934.166,-60.027 934.166,62.084Z"/>
            </clipPath>
            <g clip-path="url(#_clip1)">
                <g transform="matrix(0.983333,0,0,0.990756,-98.8866,-309.209)">
                    <path d="M600.563,2.566L600.563,1193.58" style="fill:none;stroke:rgb(227,227,227);stroke-width:3.98px;"/>
                </g>
                <g transform="matrix(0.983333,0,0,0.990756,-0.553368,-309.209)">
                    <path d="M600.563,2.566L600.563,1193.58" style="fill:none;stroke:rgb(227,227,227);stroke-width:3.98px;"/>
                </g>
                <g transform="matrix(0.983333,0,0,0.990756,97.7799,-309.209)">
                    <path d="M600.563,2.566L600.563,1193.58" style="fill:none;stroke:rgb(227,227,227);stroke-width:3.98px;"/>
                </g>
                <g transform="matrix(0.983333,0,0,0.990756,196.113,-309.209)">
                    <path d="M600.563,2.566L600.563,1193.58" style="fill:none;stroke:rgb(227,227,227);stroke-width:3.98px;"/>
                </g>
                <g transform="matrix(0.983333,0,0,0.990756,294.446,-309.209)">
                    <path d="M600.563,2.566L600.563,1193.58" style="fill:none;stroke:rgb(227,227,227);stroke-width:3.98px;"/>
                </g>
                <g transform="matrix(0.983333,0,0,0.990756,392.78,-309.209)">
                    <path d="M600.563,2.566L600.563,1193.58" style="fill:none;stroke:rgb(227,227,227);stroke-width:3.98px;"/>
                </g>
                <g transform="matrix(0.983333,0,0,0.990756,-197.22,-309.209)">
                    <path d="M600.563,2.566L600.563,1193.58" style="fill:none;stroke:rgb(227,227,227);stroke-width:3.98px;"/>
                </g>
                <g transform="matrix(0.983333,0,0,0.990756,-295.553,-309.209)">
                    <path d="M600.563,2.566L600.563,1193.58" style="fill:none;stroke:rgb(227,227,227);stroke-width:3.98px;"/>
                </g>
                <g transform="matrix(0.983333,0,0,0.990756,-393.886,-309.209)">
                    <path d="M600.563,2.566L600.563,1193.58" style="fill:none;stroke:rgb(227,227,227);stroke-width:3.98px;"/>
                </g>
                <g transform="matrix(0.983333,0,0,0.990756,-492.22,-309.209)">
                    <path d="M600.563,2.566L600.563,1193.58" style="fill:none;stroke:rgb(227,227,227);stroke-width:3.98px;"/>
                </g>
                <g transform="matrix(0.983333,0,0,0.990756,-590.553,-309.209)">
                    <path d="M600.563,2.566L600.563,1193.58" style="fill:none;stroke:rgb(227,227,227);stroke-width:3.98px;"/>
                </g>
                <g transform="matrix(6.02118e-17,0.983333,-0.990756,6.06663e-17,1084.21,-307.219)">
                    <path d="M600.563,2.566L600.563,1193.58" style="fill:none;stroke:rgb(227,227,227);stroke-width:3.98px;"/>
                </g>
                <g transform="matrix(6.02118e-17,0.983333,-0.990756,6.06663e-17,1084.21,-208.886)">
                    <path d="M600.563,2.566L600.563,1193.58" style="fill:none;stroke:rgb(227,227,227);stroke-width:3.98px;"/>
                </g>
                <g transform="matrix(6.02118e-17,0.983333,-0.990756,6.06663e-17,1084.21,-110.553)">
                    <path d="M600.563,2.566L600.563,1193.58" style="fill:none;stroke:rgb(227,227,227);stroke-width:3.98px;"/>
                </g>
                <g transform="matrix(6.02118e-17,0.983333,-0.990756,6.06663e-17,1084.21,-12.2196)">
                    <path d="M600.563,2.566L600.563,1193.58" style="fill:none;stroke:rgb(227,227,227);stroke-width:3.98px;"/>
                </g>
                <g transform="matrix(6.02118e-17,0.983333,-0.990756,6.06663e-17,1084.21,86.1136)">
                    <path d="M600.563,2.566L600.563,1193.58" style="fill:none;stroke:rgb(227,227,227);stroke-width:3.98px;"/>
                </g>
                <g transform="matrix(6.02118e-17,0.983333,-0.990756,6.06663e-17,1084.21,184.447)">
                    <path d="M600.563,2.566L600.563,1193.58" style="fill:none;stroke:rgb(227,227,227);stroke-width:3.98px;"/>
                </g>
                <g transform="matrix(6.02118e-17,0.983333,-0.990756,6.06663e-17,1084.21,-405.553)">
                    <path d="M600.563,2.566L600.563,1193.58" style="fill:none;stroke:rgb(227,227,227);stroke-width:3.98px;"/>
                </g>
                <g transform="matrix(6.02118e-17,0.983333,-0.990756,6.06663e-17,1084.21,-503.886)">
                    <path d="M600.563,2.566L600.563,1193.58" style="fill:none;stroke:rgb(227,227,227);stroke-width:3.98px;"/>
                </g>
                <g transform="matrix(6.02118e-17,0.983333,-0.990756,6.06663e-17,1084.21,-602.219)">
                    <path d="M600.563,2.566L600.563,1193.58" style="fill:none;stroke:rgb(227,227,227);stroke-width:3.98px;"/>
                </g>
                <g transform="matrix(6.02118e-17,0.983333,-0.990756,6.06663e-17,1084.21,-700.552)">
                    <path d="M600.563,2.566L600.563,1193.58" style="fill:none;stroke:rgb(227,227,227);stroke-width:3.98px;"/>
                </g>
                <g transform="matrix(6.02118e-17,0.983333,-0.990756,6.06663e-17,1084.21,-798.886)">
                    <path d="M600.563,2.566L600.563,1193.58" style="fill:none;stroke:rgb(227,227,227);stroke-width:3.98px;"/>
                </g>
            </g>
        </g>
        <g transform="matrix(0.702784,0,0,0.702784,146.13,84.2111)">
            <g id="dot-1" transform="matrix(4.16667,0,0,4.16667,0,0)">
                <path d="M36,118C36,127.941 27.941,136 18,136C8.058,136 0,127.941 0,118C0,108.059 8.058,100 18,100C27.941,100 36,108.059 36,118Z" style="fill-rule:nonzero;"/>
            </g>
            <g id="dot-2" transform="matrix(4.16667,0,0,4.16667,0,0)">
                <path d="M36,68C36,77.942 27.941,86 18,86C8.058,86 0,77.942 0,68C0,58.059 8.058,50 18,50C27.941,50 36,58.059 36,68Z" style="fill-rule:nonzero;"/>
            </g>
            <g id="dot-3" transform="matrix(4.16667,0,0,4.16667,0,0)">
                <path d="M36,18C36,27.942 27.941,36 18,36C8.058,36 0,27.942 0,18C0,8.059 8.058,0 18,0C27.941,0 36,8.059 36,18Z" style="fill-rule:nonzero;"/>
            </g>
            <g id="dot-4" transform="matrix(4.16667,0,0,4.16667,0,0)">
                <path d="M86,18C86,27.942 77.941,36 68,36C58.058,36 50,27.942 50,18C50,8.059 58.058,0 68,0C77.941,0 86,8.059 86,18Z" style="fill-rule:nonzero;"/>
            </g>
            <g id="dot-5" transform="matrix(4.16667,0,0,4.16667,0,0)">
                <path d="M136,18C136,27.942 127.941,36 118,36C108.059,36 100,27.942 100,18C100,8.059 108.059,0 118,0C127.941,0 136,8.059 136,18Z" style="fill-rule:nonzero;"/>
            </g>
            <g id="dot-6" transform="matrix(4.16667,0,0,4.16667,0,0)">
                <path d="M136,68C136,77.942 127.941,86 118,86C108.059,86 100,77.942 100,68C100,58.059 108.059,50 118,50C127.941,50 136,58.059 136,68Z" style="fill-rule:nonzero;"/>
            </g>
            <g id="dot-7" transform="matrix(4.16667,0,0,4.16667,0,0)">
                <path d="M136,118C136,127.941 127.941,136 118,136C108.059,136 100,127.941 100,118C100,108.059 108.059,100 118,100C127.941,100 136,108.059 136,118Z" style="fill-rule:nonzero;"/>
            </g>
            <g id="dot-8" transform="matrix(4.16667,0,0,4.16667,0,0)">
                <path d="M186,118C186,127.941 177.941,136 168,136C158.059,136 150,127.941 150,118C150,108.059 158.059,100 168,100C177.941,100 186,108.059 186,118Z" style="fill-rule:nonzero;"/>
            </g>
            <g id="dot-9" transform="matrix(4.16667,0,0,4.16667,0,0)">
                <path d="M236,118C236,127.941 227.941,136 218,136C208.059,136 200,127.941 200,118C200,108.059 208.059,100 218,100C227.941,100 236,108.059 236,118Z" style="fill-rule:nonzero;"/>
            </g>
            <g id="dot-10" transform="matrix(4.16667,0,0,4.16667,0,0)">
                <path d="M236,68C236,77.942 227.941,86 218,86C208.059,86 200,77.942 200,68C200,58.059 208.059,50 218,50C227.941,50 236,58.059 236,68Z" style="fill-rule:nonzero;"/>
            </g>
            <g id="dot-11" transform="matrix(4.16667,0,0,4.16667,0,0)">
                <path d="M236,18C236,27.942 227.941,36 218,36C208.059,36 200,27.942 200,18C200,8.059 208.059,0 218,0C227.941,0 236,8.059 236,18Z" style="fill-rule:nonzero;"/>
            </g>
        </g>
    </g>
</svg>
